<mxfile host="app.diagrams.net" modified="2021-06-24T08:36:07.870Z" agent="5.0 (Windows NT 10.0; Win64; x64) AppleWebKit/537.36 (KHTML, like Gecko) Chrome/91.0.4472.114 Safari/537.36" etag="Zt61jUjGdOsJpnZuIxvC" version="14.8.0" type="github">
  <diagram id="9FoNY3okzOBrGsZRDrC6" name="Page-1">
    <mxGraphModel dx="1447" dy="1728" grid="1" gridSize="10" guides="1" tooltips="1" connect="1" arrows="1" fold="1" page="1" pageScale="1" pageWidth="1100" pageHeight="850" background="#DAD2D8" math="0" shadow="0">
      <root>
        <mxCell id="0" />
        <mxCell id="1" parent="0" />
        <mxCell id="q-MH4yraOHK4n5ChblBy-10" value="" style="group;rotation=-90;fontColor=#143642;" parent="1" vertex="1" connectable="0">
          <mxGeometry x="20" y="320" width="120" height="80" as="geometry" />
        </mxCell>
        <mxCell id="q-MH4yraOHK4n5ChblBy-6" value="" style="ellipse;whiteSpace=wrap;html=1;fontSize=18;rotation=-90;fillColor=#FAE5C7;strokeColor=#0F8B8D;fontColor=#143642;" parent="q-MH4yraOHK4n5ChblBy-10" vertex="1">
          <mxGeometry width="120" height="80" as="geometry" />
        </mxCell>
        <mxCell id="q-MH4yraOHK4n5ChblBy-3" value="HOME" style="text;html=1;resizable=0;autosize=1;align=center;verticalAlign=middle;points=[];fillColor=none;strokeColor=none;fontSize=18;rotation=-90;textDirection=rtl;fontColor=#143642;" parent="q-MH4yraOHK4n5ChblBy-10" vertex="1">
          <mxGeometry x="25" y="25" width="70" height="30" as="geometry" />
        </mxCell>
        <mxCell id="q-MH4yraOHK4n5ChblBy-12" value="" style="endArrow=classic;html=1;fontSize=18;strokeColor=#A8201A;fontColor=#143642;labelBackgroundColor=#DAD2D8;" parent="1" edge="1">
          <mxGeometry width="50" height="50" relative="1" as="geometry">
            <mxPoint x="80" y="300" as="sourcePoint" />
            <mxPoint x="210" y="120" as="targetPoint" />
            <Array as="points">
              <mxPoint x="80" y="120" />
            </Array>
          </mxGeometry>
        </mxCell>
        <mxCell id="q-MH4yraOHK4n5ChblBy-13" value="" style="group;rotation=-90;fontColor=#143642;" parent="1" vertex="1" connectable="0">
          <mxGeometry x="170" y="510" width="120" height="80" as="geometry" />
        </mxCell>
        <mxCell id="q-MH4yraOHK4n5ChblBy-14" value="" style="ellipse;whiteSpace=wrap;html=1;fontSize=18;rotation=-90;fillColor=#FAE5C7;strokeColor=#0F8B8D;fontColor=#143642;" parent="q-MH4yraOHK4n5ChblBy-13" vertex="1">
          <mxGeometry width="120" height="80" as="geometry" />
        </mxCell>
        <mxCell id="q-MH4yraOHK4n5ChblBy-15" value="ABOUT US" style="text;html=1;resizable=0;autosize=1;align=center;verticalAlign=middle;points=[];fillColor=none;strokeColor=none;fontSize=18;rotation=-90;textDirection=rtl;fontColor=#143642;" parent="q-MH4yraOHK4n5ChblBy-13" vertex="1">
          <mxGeometry x="5" y="25" width="110" height="30" as="geometry" />
        </mxCell>
        <mxCell id="q-MH4yraOHK4n5ChblBy-16" value="" style="endArrow=classic;html=1;fontSize=18;exitX=0;exitY=0.5;exitDx=0;exitDy=0;strokeColor=#A8201A;fontColor=#143642;labelBackgroundColor=#DAD2D8;" parent="1" source="q-MH4yraOHK4n5ChblBy-6" edge="1">
          <mxGeometry width="50" height="50" relative="1" as="geometry">
            <mxPoint x="90" y="620" as="sourcePoint" />
            <mxPoint x="190" y="550" as="targetPoint" />
            <Array as="points">
              <mxPoint x="80" y="550" />
            </Array>
          </mxGeometry>
        </mxCell>
        <mxCell id="q-MH4yraOHK4n5ChblBy-17" value="" style="group;rotation=-90;fontColor=#143642;" parent="1" vertex="1" connectable="0">
          <mxGeometry x="190" y="80" width="120" height="80" as="geometry" />
        </mxCell>
        <mxCell id="q-MH4yraOHK4n5ChblBy-18" value="" style="ellipse;whiteSpace=wrap;html=1;fontSize=18;rotation=-90;fillColor=#FAE5C7;strokeColor=#0F8B8D;fontColor=#143642;" parent="q-MH4yraOHK4n5ChblBy-17" vertex="1">
          <mxGeometry width="120" height="80" as="geometry" />
        </mxCell>
        <mxCell id="q-MH4yraOHK4n5ChblBy-19" value="SEARCH" style="text;html=1;resizable=0;autosize=1;align=center;verticalAlign=middle;points=[];fillColor=none;strokeColor=none;fontSize=18;rotation=-90;textDirection=rtl;fontColor=#143642;" parent="q-MH4yraOHK4n5ChblBy-17" vertex="1">
          <mxGeometry x="15" y="25" width="90" height="30" as="geometry" />
        </mxCell>
        <mxCell id="q-MH4yraOHK4n5ChblBy-20" value="" style="endArrow=classic;html=1;fontSize=18;exitX=0.5;exitY=1;exitDx=0;exitDy=0;strokeColor=#A8201A;fontColor=#143642;labelBackgroundColor=#DAD2D8;" parent="1" source="q-MH4yraOHK4n5ChblBy-6" edge="1">
          <mxGeometry width="50" height="50" relative="1" as="geometry">
            <mxPoint x="400" y="380" as="sourcePoint" />
            <mxPoint x="240" y="360" as="targetPoint" />
          </mxGeometry>
        </mxCell>
        <mxCell id="q-MH4yraOHK4n5ChblBy-21" value="" style="group;rotation=-90;fontColor=#143642;" parent="1" vertex="1" connectable="0">
          <mxGeometry x="220" y="320" width="120" height="80" as="geometry" />
        </mxCell>
        <mxCell id="q-MH4yraOHK4n5ChblBy-22" value="" style="ellipse;whiteSpace=wrap;html=1;fontSize=18;rotation=-90;fillColor=#FAE5C7;strokeColor=#0F8B8D;fontColor=#143642;" parent="q-MH4yraOHK4n5ChblBy-21" vertex="1">
          <mxGeometry width="120" height="80" as="geometry" />
        </mxCell>
        <mxCell id="q-MH4yraOHK4n5ChblBy-23" value="SIGN UP" style="text;html=1;resizable=0;autosize=1;align=center;verticalAlign=middle;points=[];fillColor=none;strokeColor=none;fontSize=18;rotation=-90;textDirection=rtl;fontColor=#143642;" parent="q-MH4yraOHK4n5ChblBy-21" vertex="1">
          <mxGeometry x="15" y="25" width="90" height="30" as="geometry" />
        </mxCell>
        <mxCell id="q-MH4yraOHK4n5ChblBy-24" value="" style="endArrow=classic;html=1;fontSize=18;exitX=1;exitY=0.5;exitDx=0;exitDy=0;strokeColor=#A8201A;fontColor=#143642;labelBackgroundColor=#DAD2D8;" parent="1" source="q-MH4yraOHK4n5ChblBy-22" edge="1">
          <mxGeometry width="50" height="50" relative="1" as="geometry">
            <mxPoint x="400" y="380" as="sourcePoint" />
            <mxPoint x="360" y="260" as="targetPoint" />
            <Array as="points">
              <mxPoint x="280" y="260" />
            </Array>
          </mxGeometry>
        </mxCell>
        <mxCell id="q-MH4yraOHK4n5ChblBy-25" value="" style="endArrow=classic;html=1;fontSize=18;strokeColor=#A8201A;fontColor=#143642;labelBackgroundColor=#DAD2D8;" parent="1" edge="1">
          <mxGeometry width="50" height="50" relative="1" as="geometry">
            <mxPoint x="280" y="420" as="sourcePoint" />
            <mxPoint x="360" y="460" as="targetPoint" />
            <Array as="points">
              <mxPoint x="280" y="460" />
            </Array>
          </mxGeometry>
        </mxCell>
        <mxCell id="q-MH4yraOHK4n5ChblBy-27" value="" style="group;rotation=-90;fontColor=#143642;" parent="1" vertex="1" connectable="0">
          <mxGeometry x="340" y="220" width="120" height="80" as="geometry" />
        </mxCell>
        <mxCell id="q-MH4yraOHK4n5ChblBy-28" value="" style="ellipse;whiteSpace=wrap;html=1;fontSize=18;rotation=-90;fillColor=#FAE5C7;strokeColor=#0F8B8D;fontColor=#143642;" parent="q-MH4yraOHK4n5ChblBy-27" vertex="1">
          <mxGeometry width="120" height="80" as="geometry" />
        </mxCell>
        <mxCell id="q-MH4yraOHK4n5ChblBy-29" value="LOG IN" style="text;html=1;resizable=0;autosize=1;align=center;verticalAlign=middle;points=[];fillColor=none;strokeColor=none;fontSize=18;rotation=-90;textDirection=rtl;fontColor=#143642;" parent="q-MH4yraOHK4n5ChblBy-27" vertex="1">
          <mxGeometry x="20" y="25" width="80" height="30" as="geometry" />
        </mxCell>
        <mxCell id="q-MH4yraOHK4n5ChblBy-30" value="" style="group;rotation=-90;fontColor=#143642;" parent="1" vertex="1" connectable="0">
          <mxGeometry x="340" y="420" width="120" height="80" as="geometry" />
        </mxCell>
        <mxCell id="q-MH4yraOHK4n5ChblBy-31" value="" style="ellipse;whiteSpace=wrap;html=1;fontSize=18;rotation=-90;fillColor=#FAE5C7;strokeColor=#0F8B8D;fontColor=#143642;" parent="q-MH4yraOHK4n5ChblBy-30" vertex="1">
          <mxGeometry width="120" height="80" as="geometry" />
        </mxCell>
        <mxCell id="q-MH4yraOHK4n5ChblBy-32" value="SIGN UP" style="text;html=1;resizable=0;autosize=1;align=center;verticalAlign=middle;points=[];fillColor=none;strokeColor=none;fontSize=18;rotation=-90;textDirection=rtl;fontColor=#143642;" parent="q-MH4yraOHK4n5ChblBy-30" vertex="1">
          <mxGeometry x="15" y="25" width="90" height="30" as="geometry" />
        </mxCell>
        <mxCell id="q7uwL0bINR3Yt27rcFCA-3" value="" style="group;fontColor=#143642;" vertex="1" connectable="0" parent="1">
          <mxGeometry x="405" y="-20" width="350" height="60" as="geometry" />
        </mxCell>
        <mxCell id="q7uwL0bINR3Yt27rcFCA-1" value="" style="whiteSpace=wrap;html=1;fillColor=#FAE5C7;strokeColor=#0F8B8D;fontColor=#143642;" vertex="1" parent="q7uwL0bINR3Yt27rcFCA-3">
          <mxGeometry width="350" height="60" as="geometry" />
        </mxCell>
        <mxCell id="q7uwL0bINR3Yt27rcFCA-2" value="SEARCHME.TECH ARCHITECTURE" style="text;html=1;resizable=0;autosize=1;align=center;verticalAlign=middle;points=[];fillColor=none;strokeColor=none;fontSize=18;rotation=0;textDirection=rtl;fontColor=#143642;" vertex="1" parent="q7uwL0bINR3Yt27rcFCA-3">
          <mxGeometry x="15" y="15" width="320" height="30" as="geometry" />
        </mxCell>
        <mxCell id="q7uwL0bINR3Yt27rcFCA-13" value="" style="group;rotation=-90;fontColor=#143642;" vertex="1" connectable="0" parent="1">
          <mxGeometry x="710" y="260" width="120" height="80" as="geometry" />
        </mxCell>
        <mxCell id="q7uwL0bINR3Yt27rcFCA-14" value="" style="ellipse;whiteSpace=wrap;html=1;fontSize=18;rotation=-90;fillColor=#FAE5C7;strokeColor=#0F8B8D;fontColor=#143642;" vertex="1" parent="q7uwL0bINR3Yt27rcFCA-13">
          <mxGeometry width="120" height="80" as="geometry" />
        </mxCell>
        <mxCell id="q7uwL0bINR3Yt27rcFCA-15" value="SEARCH" style="text;html=1;resizable=0;autosize=1;align=center;verticalAlign=middle;points=[];fillColor=none;strokeColor=none;fontSize=18;rotation=-90;textDirection=rtl;fontColor=#143642;" vertex="1" parent="q7uwL0bINR3Yt27rcFCA-13">
          <mxGeometry x="15" y="25" width="90" height="30" as="geometry" />
        </mxCell>
        <mxCell id="q7uwL0bINR3Yt27rcFCA-116" value="" style="endArrow=classic;startArrow=classic;html=1;fontSize=15;fontColor=#143642;strokeColor=#A8201A;fillColor=#FAE5C7;entryX=0.442;entryY=0;entryDx=0;entryDy=0;entryPerimeter=0;" edge="1" parent="q7uwL0bINR3Yt27rcFCA-13" target="q7uwL0bINR3Yt27rcFCA-113">
          <mxGeometry width="50" height="50" relative="1" as="geometry">
            <mxPoint x="80" y="-10" as="sourcePoint" />
            <mxPoint x="320" y="-195" as="targetPoint" />
            <Array as="points">
              <mxPoint x="80" y="-185" />
            </Array>
          </mxGeometry>
        </mxCell>
        <mxCell id="q7uwL0bINR3Yt27rcFCA-21" value="" style="group" vertex="1" connectable="0" parent="1">
          <mxGeometry x="360" y="80" width="80" height="80" as="geometry" />
        </mxCell>
        <mxCell id="q7uwL0bINR3Yt27rcFCA-17" value="" style="rhombus;whiteSpace=wrap;html=1;fontColor=#143642;strokeColor=#0F8B8D;fillColor=#FAE5C7;" vertex="1" parent="q7uwL0bINR3Yt27rcFCA-21">
          <mxGeometry width="80" height="80" as="geometry" />
        </mxCell>
        <mxCell id="q7uwL0bINR3Yt27rcFCA-18" value="If Logged In" style="text;html=1;strokeColor=none;fillColor=none;align=center;verticalAlign=middle;whiteSpace=wrap;rounded=0;fontColor=#143642;" vertex="1" parent="q7uwL0bINR3Yt27rcFCA-21">
          <mxGeometry x="20" y="30" width="40" height="20" as="geometry" />
        </mxCell>
        <mxCell id="q7uwL0bINR3Yt27rcFCA-24" value="" style="edgeStyle=orthogonalEdgeStyle;rounded=1;orthogonalLoop=1;jettySize=auto;html=1;fontColor=#143642;strokeColor=#A8201A;fillColor=#FAE5C7;" edge="1" parent="1" source="q-MH4yraOHK4n5ChblBy-18">
          <mxGeometry relative="1" as="geometry">
            <mxPoint x="360" y="120" as="targetPoint" />
          </mxGeometry>
        </mxCell>
        <mxCell id="q7uwL0bINR3Yt27rcFCA-25" value="" style="edgeStyle=orthogonalEdgeStyle;rounded=1;orthogonalLoop=1;jettySize=auto;html=1;fontColor=#143642;strokeColor=#A8201A;fillColor=#FAE5C7;" edge="1" parent="1" source="q7uwL0bINR3Yt27rcFCA-17">
          <mxGeometry relative="1" as="geometry">
            <mxPoint x="265" y="310" as="targetPoint" />
            <Array as="points">
              <mxPoint x="400" y="190" />
              <mxPoint x="265" y="190" />
            </Array>
          </mxGeometry>
        </mxCell>
        <mxCell id="q7uwL0bINR3Yt27rcFCA-27" value="No" style="text;html=1;strokeColor=none;fillColor=none;align=center;verticalAlign=middle;whiteSpace=wrap;rounded=0;fontColor=#143642;rotation=0;" vertex="1" parent="1">
          <mxGeometry x="300" y="170" width="40" height="20" as="geometry" />
        </mxCell>
        <mxCell id="q7uwL0bINR3Yt27rcFCA-28" value="" style="endArrow=classic;html=1;fontColor=#143642;strokeColor=#A8201A;fillColor=#FAE5C7;exitX=1;exitY=0.5;exitDx=0;exitDy=0;entryX=1;entryY=0.5;entryDx=0;entryDy=0;" edge="1" parent="1" source="q7uwL0bINR3Yt27rcFCA-17" target="q7uwL0bINR3Yt27rcFCA-14">
          <mxGeometry width="50" height="50" relative="1" as="geometry">
            <mxPoint x="430" y="130" as="sourcePoint" />
            <mxPoint x="760" y="130" as="targetPoint" />
            <Array as="points">
              <mxPoint x="770" y="120" />
            </Array>
          </mxGeometry>
        </mxCell>
        <mxCell id="q7uwL0bINR3Yt27rcFCA-30" value="Yes" style="text;html=1;strokeColor=none;fillColor=none;align=center;verticalAlign=middle;whiteSpace=wrap;rounded=0;fontColor=#143642;" vertex="1" parent="1">
          <mxGeometry x="560" y="100" width="40" height="20" as="geometry" />
        </mxCell>
        <mxCell id="q7uwL0bINR3Yt27rcFCA-35" value="" style="group;rotation=-90;fontColor=#143642;" vertex="1" connectable="0" parent="1">
          <mxGeometry x="500" y="410" width="160" height="80" as="geometry" />
        </mxCell>
        <mxCell id="q7uwL0bINR3Yt27rcFCA-36" value="" style="ellipse;whiteSpace=wrap;html=1;fontSize=18;rotation=-90;fillColor=#FAE5C7;strokeColor=#0F8B8D;fontColor=#143642;" vertex="1" parent="q7uwL0bINR3Yt27rcFCA-35">
          <mxGeometry x="18.461538461538463" y="15" width="147.6923076923077" height="80" as="geometry" />
        </mxCell>
        <mxCell id="q7uwL0bINR3Yt27rcFCA-37" value="ADDON FORM" style="text;html=1;resizable=0;autosize=1;align=center;verticalAlign=middle;points=[];fillColor=none;strokeColor=none;fontSize=18;rotation=-90;textDirection=rtl;fontColor=#143642;" vertex="1" parent="q7uwL0bINR3Yt27rcFCA-35">
          <mxGeometry x="22.303846153846155" y="40" width="140" height="30" as="geometry" />
        </mxCell>
        <mxCell id="q7uwL0bINR3Yt27rcFCA-38" style="edgeStyle=orthogonalEdgeStyle;rounded=1;orthogonalLoop=1;jettySize=auto;html=1;fontColor=#143642;strokeColor=#A8201A;fillColor=#FAE5C7;" edge="1" parent="1" source="q-MH4yraOHK4n5ChblBy-31">
          <mxGeometry relative="1" as="geometry">
            <mxPoint x="550" y="459.9999999999998" as="targetPoint" />
          </mxGeometry>
        </mxCell>
        <mxCell id="q7uwL0bINR3Yt27rcFCA-39" style="edgeStyle=orthogonalEdgeStyle;rounded=1;orthogonalLoop=1;jettySize=auto;html=1;fontColor=#143642;strokeColor=#A8201A;fillColor=#FAE5C7;entryX=0;entryY=0.5;entryDx=0;entryDy=0;entryPerimeter=0;" edge="1" parent="1" source="q7uwL0bINR3Yt27rcFCA-36" target="q7uwL0bINR3Yt27rcFCA-14">
          <mxGeometry relative="1" as="geometry">
            <mxPoint x="780" y="464.9999999999998" as="targetPoint" />
          </mxGeometry>
        </mxCell>
        <mxCell id="q7uwL0bINR3Yt27rcFCA-41" value="" style="group" vertex="1" connectable="0" parent="1">
          <mxGeometry x="550" y="240" width="80" height="80" as="geometry" />
        </mxCell>
        <mxCell id="q7uwL0bINR3Yt27rcFCA-42" value="" style="rhombus;whiteSpace=wrap;html=1;fontColor=#143642;strokeColor=#0F8B8D;fillColor=#FAE5C7;" vertex="1" parent="q7uwL0bINR3Yt27rcFCA-41">
          <mxGeometry width="80" height="80" as="geometry" />
        </mxCell>
        <mxCell id="q7uwL0bINR3Yt27rcFCA-43" value="If details submitted" style="text;html=1;strokeColor=none;fillColor=none;align=center;verticalAlign=middle;whiteSpace=wrap;rounded=0;fontColor=#143642;" vertex="1" parent="q7uwL0bINR3Yt27rcFCA-41">
          <mxGeometry x="20" y="30" width="40" height="20" as="geometry" />
        </mxCell>
        <mxCell id="q7uwL0bINR3Yt27rcFCA-45" style="edgeStyle=orthogonalEdgeStyle;rounded=1;orthogonalLoop=1;jettySize=auto;html=1;entryX=0.672;entryY=0.046;entryDx=0;entryDy=0;entryPerimeter=0;fontColor=#143642;strokeColor=#A8201A;fillColor=#FAE5C7;" edge="1" parent="1" target="q7uwL0bINR3Yt27rcFCA-14">
          <mxGeometry relative="1" as="geometry">
            <mxPoint x="630" y="279" as="sourcePoint" />
          </mxGeometry>
        </mxCell>
        <mxCell id="q7uwL0bINR3Yt27rcFCA-46" style="edgeStyle=orthogonalEdgeStyle;rounded=1;orthogonalLoop=1;jettySize=auto;html=1;entryX=0;entryY=0.5;entryDx=0;entryDy=0;fontColor=#143642;strokeColor=#A8201A;fillColor=#FAE5C7;" edge="1" parent="1" source="q-MH4yraOHK4n5ChblBy-28" target="q7uwL0bINR3Yt27rcFCA-42">
          <mxGeometry relative="1" as="geometry" />
        </mxCell>
        <mxCell id="q7uwL0bINR3Yt27rcFCA-47" value="Yes" style="text;html=1;strokeColor=none;fillColor=none;align=center;verticalAlign=middle;whiteSpace=wrap;rounded=0;fontColor=#143642;" vertex="1" parent="1">
          <mxGeometry x="650" y="260" width="40" height="20" as="geometry" />
        </mxCell>
        <mxCell id="q7uwL0bINR3Yt27rcFCA-48" style="edgeStyle=orthogonalEdgeStyle;rounded=1;orthogonalLoop=1;jettySize=auto;html=1;entryX=1.036;entryY=0.423;entryDx=0;entryDy=0;entryPerimeter=0;fontColor=#143642;strokeColor=#A8201A;fillColor=#FAE5C7;" edge="1" parent="1" source="q7uwL0bINR3Yt27rcFCA-42" target="q7uwL0bINR3Yt27rcFCA-37">
          <mxGeometry relative="1" as="geometry" />
        </mxCell>
        <mxCell id="q7uwL0bINR3Yt27rcFCA-49" value="No" style="text;html=1;strokeColor=none;fillColor=none;align=center;verticalAlign=middle;whiteSpace=wrap;rounded=0;fontColor=#143642;rotation=-90;" vertex="1" parent="1">
          <mxGeometry x="560" y="340" width="40" height="20" as="geometry" />
        </mxCell>
        <mxCell id="q7uwL0bINR3Yt27rcFCA-50" value="" style="group;rotation=-90;fontColor=#143642;fontSize=15;" vertex="1" connectable="0" parent="1">
          <mxGeometry x="950" y="180" width="165" height="100" as="geometry" />
        </mxCell>
        <mxCell id="q7uwL0bINR3Yt27rcFCA-69" value="" style="group" vertex="1" connectable="0" parent="q7uwL0bINR3Yt27rcFCA-50">
          <mxGeometry x="19.999999999999993" y="-20" width="80" height="120" as="geometry" />
        </mxCell>
        <mxCell id="q7uwL0bINR3Yt27rcFCA-51" value="" style="ellipse;whiteSpace=wrap;html=1;fontSize=18;rotation=-90;fillColor=#FAE5C7;strokeColor=#0F8B8D;fontColor=#143642;" vertex="1" parent="q7uwL0bINR3Yt27rcFCA-69">
          <mxGeometry x="-19.999999999999993" y="20" width="120" height="80" as="geometry" />
        </mxCell>
        <mxCell id="q7uwL0bINR3Yt27rcFCA-59" value="SEARCH (NO FILTERS)" style="text;html=1;strokeColor=none;fillColor=none;align=center;verticalAlign=middle;whiteSpace=wrap;rounded=0;fontColor=#143642;rotation=-90;fontSize=15;" vertex="1" parent="q7uwL0bINR3Yt27rcFCA-69">
          <mxGeometry x="10.000000000000007" y="45" width="60" height="30" as="geometry" />
        </mxCell>
        <mxCell id="q7uwL0bINR3Yt27rcFCA-53" value="" style="group;rotation=-90;fontColor=#143642;" vertex="1" connectable="0" parent="1">
          <mxGeometry x="950" y="360" width="120" height="80" as="geometry" />
        </mxCell>
        <mxCell id="q7uwL0bINR3Yt27rcFCA-54" value="" style="ellipse;whiteSpace=wrap;html=1;fontSize=18;rotation=-90;fillColor=#FAE5C7;strokeColor=#0F8B8D;fontColor=#143642;" vertex="1" parent="q7uwL0bINR3Yt27rcFCA-53">
          <mxGeometry width="120" height="80" as="geometry" />
        </mxCell>
        <mxCell id="q7uwL0bINR3Yt27rcFCA-65" value="SEARCH (FILTERS)" style="text;html=1;strokeColor=none;fillColor=none;align=center;verticalAlign=middle;whiteSpace=wrap;rounded=0;fontSize=15;fontColor=#143642;rotation=-90;" vertex="1" parent="q7uwL0bINR3Yt27rcFCA-53">
          <mxGeometry x="40" y="30" width="40" height="20" as="geometry" />
        </mxCell>
        <mxCell id="q7uwL0bINR3Yt27rcFCA-56" style="edgeStyle=orthogonalEdgeStyle;rounded=1;orthogonalLoop=1;jettySize=auto;html=1;fontColor=#143642;strokeColor=#A8201A;fillColor=#FAE5C7;exitX=0.631;exitY=1.015;exitDx=0;exitDy=0;exitPerimeter=0;" edge="1" parent="1" source="q7uwL0bINR3Yt27rcFCA-14" target="q7uwL0bINR3Yt27rcFCA-51">
          <mxGeometry relative="1" as="geometry" />
        </mxCell>
        <mxCell id="q7uwL0bINR3Yt27rcFCA-58" value="" style="endArrow=classic;html=1;fontColor=#143642;strokeColor=#A8201A;fillColor=#FAE5C7;exitX=0.332;exitY=0.994;exitDx=0;exitDy=0;exitPerimeter=0;entryX=0.5;entryY=0;entryDx=0;entryDy=0;" edge="1" parent="1" source="q7uwL0bINR3Yt27rcFCA-14" target="q7uwL0bINR3Yt27rcFCA-54">
          <mxGeometry width="50" height="50" relative="1" as="geometry">
            <mxPoint x="840" y="390" as="sourcePoint" />
            <mxPoint x="970" y="370" as="targetPoint" />
            <Array as="points">
              <mxPoint x="890" y="320" />
              <mxPoint x="890" y="400" />
            </Array>
          </mxGeometry>
        </mxCell>
        <mxCell id="q7uwL0bINR3Yt27rcFCA-66" value="" style="group;rotation=-90;fontColor=#143642;" vertex="1" connectable="0" parent="1">
          <mxGeometry x="1170" y="270" width="120" height="80" as="geometry" />
        </mxCell>
        <mxCell id="q7uwL0bINR3Yt27rcFCA-67" value="" style="ellipse;whiteSpace=wrap;html=1;fontSize=18;rotation=-90;fillColor=#FAE5C7;strokeColor=#0F8B8D;fontColor=#143642;" vertex="1" parent="q7uwL0bINR3Yt27rcFCA-66">
          <mxGeometry width="120" height="80" as="geometry" />
        </mxCell>
        <mxCell id="q7uwL0bINR3Yt27rcFCA-68" value="RESULTS" style="text;html=1;resizable=0;autosize=1;align=center;verticalAlign=middle;points=[];fillColor=none;strokeColor=none;fontSize=18;rotation=-90;textDirection=rtl;fontColor=#143642;" vertex="1" parent="q7uwL0bINR3Yt27rcFCA-66">
          <mxGeometry x="10" y="25" width="100" height="30" as="geometry" />
        </mxCell>
        <mxCell id="q7uwL0bINR3Yt27rcFCA-70" style="edgeStyle=orthogonalEdgeStyle;rounded=1;orthogonalLoop=1;jettySize=auto;html=1;entryX=0.667;entryY=0;entryDx=0;entryDy=0;entryPerimeter=0;fontSize=15;fontColor=#143642;strokeColor=#A8201A;fillColor=#FAE5C7;" edge="1" parent="1" source="q7uwL0bINR3Yt27rcFCA-51" target="q7uwL0bINR3Yt27rcFCA-67">
          <mxGeometry relative="1" as="geometry" />
        </mxCell>
        <mxCell id="q7uwL0bINR3Yt27rcFCA-71" style="edgeStyle=orthogonalEdgeStyle;rounded=1;orthogonalLoop=1;jettySize=auto;html=1;fontSize=15;fontColor=#143642;strokeColor=#A8201A;fillColor=#FAE5C7;" edge="1" parent="1" source="q7uwL0bINR3Yt27rcFCA-54" target="q7uwL0bINR3Yt27rcFCA-67">
          <mxGeometry relative="1" as="geometry" />
        </mxCell>
        <mxCell id="q7uwL0bINR3Yt27rcFCA-72" value="" style="group;rotation=-90;fontColor=#143642;" vertex="1" connectable="0" parent="1">
          <mxGeometry x="1460" y="370" width="170" height="80" as="geometry" />
        </mxCell>
        <mxCell id="q7uwL0bINR3Yt27rcFCA-73" value="" style="ellipse;whiteSpace=wrap;html=1;fontSize=18;rotation=-90;fillColor=#FAE5C7;strokeColor=#0F8B8D;fontColor=#143642;" vertex="1" parent="q7uwL0bINR3Yt27rcFCA-72">
          <mxGeometry width="120" height="80" as="geometry" />
        </mxCell>
        <mxCell id="q7uwL0bINR3Yt27rcFCA-74" value="&lt;span style=&quot;font-size: 12px&quot;&gt;RESULT ACCOUNT&lt;br&gt;&amp;nbsp;(FULL DETAILS)&lt;/span&gt;" style="text;html=1;resizable=0;autosize=1;align=center;verticalAlign=middle;points=[];fillColor=none;strokeColor=none;fontSize=18;rotation=-90;textDirection=rtl;fontColor=#143642;" vertex="1" parent="q7uwL0bINR3Yt27rcFCA-72">
          <mxGeometry y="15" width="120" height="50" as="geometry" />
        </mxCell>
        <mxCell id="q7uwL0bINR3Yt27rcFCA-79" value="" style="group;rotation=-90;fontColor=#143642;" vertex="1" connectable="0" parent="1">
          <mxGeometry x="1460" y="190" width="120" height="80" as="geometry" />
        </mxCell>
        <mxCell id="q7uwL0bINR3Yt27rcFCA-80" value="" style="ellipse;whiteSpace=wrap;html=1;fontSize=18;rotation=-90;fillColor=#FAE5C7;strokeColor=#0F8B8D;fontColor=#143642;" vertex="1" parent="q7uwL0bINR3Yt27rcFCA-79">
          <mxGeometry width="120" height="80" as="geometry" />
        </mxCell>
        <mxCell id="q7uwL0bINR3Yt27rcFCA-82" value="&lt;font style=&quot;font-size: 12px&quot;&gt;RESULT ACCOUNT&lt;br&gt;(5 DETAILS)&lt;br&gt;&lt;/font&gt;" style="text;html=1;strokeColor=none;fillColor=none;align=center;verticalAlign=middle;whiteSpace=wrap;rounded=0;fontSize=15;fontColor=#143642;rotation=-90;" vertex="1" parent="q7uwL0bINR3Yt27rcFCA-79">
          <mxGeometry x="10" y="30" width="90" height="20" as="geometry" />
        </mxCell>
        <mxCell id="q7uwL0bINR3Yt27rcFCA-92" value="" style="group" vertex="1" connectable="0" parent="1">
          <mxGeometry x="1350" y="265" width="100" height="90" as="geometry" />
        </mxCell>
        <mxCell id="q7uwL0bINR3Yt27rcFCA-89" value="" style="rhombus;whiteSpace=wrap;html=1;fontSize=15;fontColor=#143642;strokeColor=#0F8B8D;fillColor=#FAE5C7;" vertex="1" parent="q7uwL0bINR3Yt27rcFCA-92">
          <mxGeometry width="100" height="90" as="geometry" />
        </mxCell>
        <mxCell id="q7uwL0bINR3Yt27rcFCA-90" value="&lt;font style=&quot;font-size: 13px&quot;&gt;If user is authorized&lt;/font&gt;" style="text;html=1;strokeColor=none;fillColor=none;align=center;verticalAlign=middle;whiteSpace=wrap;rounded=0;fontSize=15;fontColor=#143642;" vertex="1" parent="q7uwL0bINR3Yt27rcFCA-92">
          <mxGeometry x="30" y="32" width="40" height="20" as="geometry" />
        </mxCell>
        <mxCell id="q7uwL0bINR3Yt27rcFCA-94" style="edgeStyle=orthogonalEdgeStyle;rounded=1;orthogonalLoop=1;jettySize=auto;html=1;fontSize=15;fontColor=#143642;strokeColor=#A8201A;fillColor=#FAE5C7;" edge="1" parent="1" source="q7uwL0bINR3Yt27rcFCA-67">
          <mxGeometry relative="1" as="geometry">
            <mxPoint x="1350" y="310" as="targetPoint" />
          </mxGeometry>
        </mxCell>
        <mxCell id="q7uwL0bINR3Yt27rcFCA-100" value="" style="endArrow=classic;html=1;fontSize=15;fontColor=#143642;strokeColor=#A8201A;fillColor=#FAE5C7;entryX=0.561;entryY=-0.006;entryDx=0;entryDy=0;entryPerimeter=0;exitX=0.5;exitY=0;exitDx=0;exitDy=0;" edge="1" parent="1" source="q7uwL0bINR3Yt27rcFCA-89" target="q7uwL0bINR3Yt27rcFCA-80">
          <mxGeometry width="50" height="50" relative="1" as="geometry">
            <mxPoint x="1400" y="260" as="sourcePoint" />
            <mxPoint x="1430" y="210" as="targetPoint" />
            <Array as="points">
              <mxPoint x="1400" y="223" />
            </Array>
          </mxGeometry>
        </mxCell>
        <mxCell id="q7uwL0bINR3Yt27rcFCA-102" value="" style="endArrow=classic;html=1;fontSize=15;fontColor=#143642;strokeColor=#A8201A;fillColor=#FAE5C7;entryX=0.561;entryY=-0.006;entryDx=0;entryDy=0;entryPerimeter=0;exitX=0.5;exitY=1;exitDx=0;exitDy=0;" edge="1" parent="1" source="q7uwL0bINR3Yt27rcFCA-89">
          <mxGeometry width="50" height="50" relative="1" as="geometry">
            <mxPoint x="1400" y="446.32" as="sourcePoint" />
            <mxPoint x="1479.52" y="403.99999999999983" as="targetPoint" />
            <Array as="points">
              <mxPoint x="1400" y="404.32" />
            </Array>
          </mxGeometry>
        </mxCell>
        <mxCell id="q7uwL0bINR3Yt27rcFCA-103" value="Yes" style="text;html=1;strokeColor=none;fillColor=none;align=center;verticalAlign=middle;whiteSpace=wrap;rounded=0;fontColor=#143642;rotation=-90;" vertex="1" parent="1">
          <mxGeometry x="1360" y="370" width="40" height="20" as="geometry" />
        </mxCell>
        <mxCell id="q7uwL0bINR3Yt27rcFCA-104" value="No" style="text;html=1;strokeColor=none;fillColor=none;align=center;verticalAlign=middle;whiteSpace=wrap;rounded=0;fontColor=#143642;rotation=-90;" vertex="1" parent="1">
          <mxGeometry x="1360" y="230" width="40" height="20" as="geometry" />
        </mxCell>
        <mxCell id="q7uwL0bINR3Yt27rcFCA-115" value="" style="group" vertex="1" connectable="0" parent="1">
          <mxGeometry x="1040" y="10" width="95" height="120" as="geometry" />
        </mxCell>
        <mxCell id="q7uwL0bINR3Yt27rcFCA-113" value="" style="ellipse;whiteSpace=wrap;html=1;fontSize=18;rotation=-90;fillColor=#FAE5C7;strokeColor=#0F8B8D;fontColor=#143642;" vertex="1" parent="q7uwL0bINR3Yt27rcFCA-115">
          <mxGeometry x="-20" y="20" width="120" height="80" as="geometry" />
        </mxCell>
        <mxCell id="q7uwL0bINR3Yt27rcFCA-114" value="&lt;font style=&quot;font-size: 16px&quot;&gt;USER &lt;br&gt;ACCOUNT&lt;br&gt;&amp;nbsp;SETTINGS&lt;/font&gt;" style="text;html=1;resizable=0;autosize=1;align=center;verticalAlign=middle;points=[];fillColor=none;strokeColor=none;fontSize=18;rotation=-90;textDirection=rtl;fontColor=#143642;" vertex="1" parent="q7uwL0bINR3Yt27rcFCA-115">
          <mxGeometry x="-10" y="25" width="100" height="70" as="geometry" />
        </mxCell>
      </root>
    </mxGraphModel>
  </diagram>
</mxfile>
